<?xml version="1.0" encoding="UTF-8" standalone="no"?>
<!-- Created with Inkscape (http://www.inkscape.org/) -->

<svg
   xmlns:dc="http://purl.org/dc/elements/1.1/"
   xmlns:cc="http://creativecommons.org/ns#"
   xmlns:rdf="http://www.w3.org/1999/02/22-rdf-syntax-ns#"
   xmlns:svg="http://www.w3.org/2000/svg"
   xmlns="http://www.w3.org/2000/svg"
   xmlns:sodipodi="http://sodipodi.sourceforge.net/DTD/sodipodi-0.dtd"
   xmlns:inkscape="http://www.inkscape.org/namespaces/inkscape"
   width="120mm"
   height="90mm"
   viewBox="0 0 120 90"
   version="1.1"
   id="svg5402"
   inkscape:export-filename="C:\row\rails_project\website\app\assets\images\list-xxl-grey.png"
   inkscape:export-xdpi="84.68"
   inkscape:export-ydpi="84.68"
   inkscape:version="0.92.1 r15371"
   sodipodi:docname="List grey.svg">
  <defs
     id="defs5396" />
  <sodipodi:namedview
     id="base"
     pagecolor="#ffffff"
     bordercolor="#666666"
     borderopacity="1.0"
     inkscape:pageopacity="0.0"
     inkscape:pageshadow="2"
     inkscape:zoom="0.88"
     inkscape:cx="215.34091"
     inkscape:cy="21.2906"
     inkscape:document-units="mm"
     inkscape:current-layer="layer1"
     showgrid="false"
     inkscape:window-width="1366"
     inkscape:window-height="706"
     inkscape:window-x="-8"
     inkscape:window-y="-8"
     inkscape:window-maximized="1" />
  <metadata
     id="metadata5399">
    <rdf:RDF>
      <cc:Work
         rdf:about="">
        <dc:format>image/svg+xml</dc:format>
        <dc:type
           rdf:resource="http://purl.org/dc/dcmitype/StillImage" />
        <dc:title></dc:title>
      </cc:Work>
    </rdf:RDF>
  </metadata>
  <g
     inkscape:label="Layer 1"
     inkscape:groupmode="layer"
     id="layer1"
     transform="translate(0,-207)">
    <path
       id="path4645-9"
       style="display:inline;opacity:1;fill:#000000;fill-opacity:0.39215686;fill-rule:evenodd;stroke-width:0.76638943"
       d="m 19.774396,220.31444 a 7.2762112,6.1473464 0 0 1 -7.276206,6.14734 7.2762112,6.1473464 0 0 1 -7.276206,-6.14734 7.2762112,6.1473464 0 0 1 7.276206,-6.14735 7.2762112,6.1473464 0 0 1 7.276206,6.14735 z m 0,20.17941 a 7.2762112,6.1473464 0 0 1 -7.276206,6.14734 7.2762112,6.1473464 0 0 1 -7.276206,-6.14734 7.2762112,6.1473464 0 0 1 7.276206,-6.14735 7.2762112,6.1473464 0 0 1 7.276206,6.14735 z m 0,20.1794 a 7.2762112,6.1473464 0 0 1 -7.276206,6.14734 7.2762112,6.1473464 0 0 1 -7.276206,-6.14734 7.2762112,6.1473464 0 0 1 7.276206,-6.14735 7.2762112,6.1473464 0 0 1 7.276206,6.14735 z m 0,20.17941 A 7.2762112,6.1473464 0 0 1 12.49819,287 a 7.2762112,6.1473464 0 0 1 -7.276206,-6.14734 7.2762112,6.1473464 0 0 1 7.276206,-6.14735 7.2762112,6.1473464 0 0 1 7.276206,6.14735 z m 7.704097,-62.95441 h 86.029687 v 4.83237 H 27.478493 Z m -1.1e-5,60.53823 h 86.029698 v 4.83236 H 27.478482 Z m 0,-19.90475 h 86.029698 v 4.83236 H 27.478482 Z m 0,-20.24988 h 86.029698 v 4.83237 H 27.478482 Z"
       inkscape:connector-curvature="0"
       inkscape:export-xdpi="76.199997"
       inkscape:export-ydpi="76.199997" />
  </g>
</svg>
